<svg id="Layer_1" data-name="Layer 1" xmlns="http://www.w3.org/2000/svg" viewBox="0 0 82.18 59.76"><defs><style>.cls-1{fill:none;stroke:#ed1c24;stroke-miterlimit:10;}.cls-2{fill:#fff;}.cls-3{fill:#595a5a;}</style></defs><title>EDI-Condensed-RedCircle-GreyI</title><circle class="cls-1" cx="37.81" cy="26.07" r="18.24"/><path class="cls-2" d="M28.21,32V20.09h4.67v.85H29.13v4.58h3.22v.85H29.13v4.75h3.8V32Z"/><path class="cls-2" d="M47.84,22.6v6.86c0,1.66-.92,2.51-2.71,2.51H42.36V20.09h2.77C46.92,20.09,47.84,20.93,47.84,22.6Zm-2.78-1.66H43.28V31.11h1.78c1.34,0,1.87-.56,1.87-2V22.9C46.92,21.49,46.4,20.93,45.06,20.93Z"/><rect class="cls-3" x="37.15" y="15.3" width="0.96" height="21.54"/><rect class="cls-3" x="37.15" y="12.41" width="0.96" height="4.82" transform="translate(52.45 -22.81) rotate(90)"/><rect class="cls-3" x="37.15" y="34.91" width="0.96" height="4.82" transform="translate(74.95 -0.31) rotate(90)"/></svg>