<svg id="Layer_1" data-name="Layer 1" xmlns="http://www.w3.org/2000/svg" viewBox="0 0 82.18 59.76"><defs><style>.cls-1{fill:none;stroke:#303030;stroke-miterlimit:10;}.cls-2{fill:#ed1c24;}</style></defs><title>EDI-Condensed-DarkGrey&amp;amp;Red</title><circle class="cls-1" cx="41.86" cy="26.73" r="18.24"/><path class="cls-2" d="M32.26,32.62V20.75h4.67v.85H33.18v4.58H36.4V27H33.18v4.75H37v.85Z"/><path class="cls-2" d="M51.89,23.26v6.86c0,1.66-.92,2.51-2.71,2.51H46.41V20.75h2.77C51,20.75,51.89,21.59,51.89,23.26Zm-2.78-1.66H47.32V31.77h1.78c1.34,0,1.87-.56,1.87-2V23.56C51,22.15,50.45,21.59,49.11,21.59Z"/><rect class="cls-2" x="41.2" y="15.96" width="0.96" height="21.54"/><rect class="cls-2" x="41.2" y="13.07" width="0.96" height="4.82" transform="translate(57.16 -26.2) rotate(90)"/><rect class="cls-2" x="41.2" y="35.57" width="0.96" height="4.82" transform="translate(79.66 -3.7) rotate(90)"/></svg>