<svg id="Layer_1" data-name="Layer 1" xmlns="http://www.w3.org/2000/svg" viewBox="0 0 82.18 59.76"><defs><style>.cls-1{fill:none;stroke:#595a5a;stroke-miterlimit:10;}.cls-2{fill:#595a5a;}</style></defs><title>EDI-Condensed-Grey</title><circle class="cls-1" cx="41.09" cy="29.81" r="18.24"/><path class="cls-2" d="M31.49,35.7V23.82h4.67v.85H32.41v4.58h3.22v.85H32.41v4.75h3.8v.85Z"/><path class="cls-2" d="M51.12,26.33v6.85c0,1.66-.92,2.51-2.71,2.51H45.64V23.82H48.4C50.2,23.82,51.12,24.67,51.12,26.33Zm-2.78-1.66H46.55V34.85h1.78c1.34,0,1.87-.56,1.87-2V26.64C50.2,25.23,49.68,24.67,48.33,24.67Z"/><rect class="cls-2" x="40.43" y="19.03" width="0.96" height="21.54"/><rect class="cls-2" x="40.43" y="16.15" width="0.96" height="4.82" transform="translate(59.46 -22.35) rotate(90)"/><rect class="cls-2" x="40.43" y="38.64" width="0.96" height="4.82" transform="translate(81.96 0.15) rotate(90)"/></svg>