<svg id="Layer_1" data-name="Layer 1" xmlns="http://www.w3.org/2000/svg" viewBox="0 0 82.18 59.76"><defs><style>.cls-1{fill:none;stroke:#303030;stroke-miterlimit:10;}.cls-2{fill:#595a5a;}.cls-3{fill:#ed1c24;}</style></defs><title>EDI-Condensed-RedI</title><circle class="cls-1" cx="41.5" cy="27.36" r="18.24"/><path class="cls-2" d="M31.9,33.25V21.37h4.67v.85H32.81V26.8H36v.85H32.81V32.4h3.8v.85Z"/><path class="cls-2" d="M51.52,23.89v6.85c0,1.66-.92,2.51-2.71,2.51H46V21.37h2.77C50.61,21.37,51.52,22.22,51.52,23.89Zm-2.78-1.66H47V32.4h1.78c1.34,0,1.87-.56,1.87-2V24.19C50.61,22.78,50.08,22.22,48.74,22.22Z"/><rect class="cls-3" x="40.83" y="16.59" width="0.96" height="21.54"/><rect class="cls-3" x="40.83" y="13.7" width="0.96" height="4.82" transform="translate(57.42 -25.21) rotate(90)"/><rect class="cls-3" x="40.83" y="36.2" width="0.96" height="4.82" transform="translate(79.92 -2.71) rotate(90)"/></svg>