<svg id="Layer_1" data-name="Layer 1" xmlns="http://www.w3.org/2000/svg" viewBox="0 0 468 324"><defs><style>.cls-1{fill:#545252;}</style></defs><title>EDI-Logo-Grey-For-Screens</title><path class="cls-1" d="M67.66,171V116.84H88.93v3.87H71.84v20.88H86.53v3.87H71.84V167.1H89.16V171Z"/><path class="cls-1" d="M110.57,143.21,122.17,171h-4.56l-9.74-24L98.2,171H93.72l11.83-28.07-11-26.06h4.64l9,22.58,8.43-22.58H121Z"/><path class="cls-1" d="M152.33,160.14c0,7.73-4.18,11.44-12.37,11.44h-.15c-8.2,0-12.37-3.63-12.37-11.44V127.67c0-7.42,4.18-11.44,12.37-11.44H140c8.2,0,12.37,4,12.37,11.44v9.28h-4.18v-7.89c0-6.34-2.24-9-8.27-9s-8.27,2.63-8.27,9v29.69c0,6.34,2.24,9,8.27,9s8.27-2.63,8.27-9v-9.2h4.18Z"/><path class="cls-1" d="M161.91,171V116.84h21.26v3.87H166.09v20.88h14.69v3.87H166.09V167.1h17.32V171Z"/><path class="cls-1" d="M211.94,171H191.6V116.84h4.17V167.1h16.16Z"/><path class="cls-1" d="M218.59,171V116.84h21.26v3.87H222.76v20.88h14.69v3.87H222.76V167.1h17.32V171Z"/><path class="cls-1" d="M270.77,171l-8.89-23.35h-9.43V171h-4.18V116.84H261c8.2,0,12.37,3.87,12.37,11.44v7.89c0,5.88-2.47,9.51-7.42,10.82l9.28,24Zm-1.55-36.11v-5.18c0-6.42-2.4-9-8.5-9h-8.27v23.12h8.27C266.83,143.82,269.23,141.2,269.23,134.85Z"/><path class="cls-1" d="M301.62,157H287.09l-3,13.92H279.9L292,116.84h4.79L309,171h-4.33Zm-.85-3.79-6.42-29.84-6.42,29.84Z"/><path class="cls-1" d="M333,120.71H322.81V171h-4.17V120.71H308.43v-3.87H333Z"/><path class="cls-1" d="M339.82,171V116.84H344V171Z"/><path class="cls-1" d="M366.65,116.22h.62c8.2,0,12.37,3.87,12.37,11.44v32.47c0,7.58-4.17,11.44-12.37,11.44h-.62c-8.2,0-12.37-3.87-12.37-11.44V127.67C354.28,120,358.45,116.22,366.65,116.22Zm.31,51.49c6.11,0,8.5-2.55,8.5-9V129.06c0-6.42-2.4-9-8.5-9s-8.5,2.55-8.5,9v29.69C358.45,165.16,360.85,167.71,367,167.71Z"/><path class="cls-1" d="M389.53,171V116.84h4.33l17.71,44.23V116.84h4V171h-4.1l-17.94-44.53V171Z"/><rect class="cls-1" x="31.63" y="93" width="418.81" height="3.22"/><rect class="cls-1" x="31.63" y="196.1" width="104.71" height="3.21"/><rect class="cls-1" x="346.06" y="196.1" width="104.38" height="3.21"/><rect class="cls-1" x="-19.91" y="144.54" width="106.31" height="3.22" transform="translate(179.4 112.91) rotate(90)"/><rect class="cls-1" x="395.67" y="144.54" width="106.31" height="3.22" transform="translate(594.98 -302.67) rotate(90)"/><path class="cls-1" d="M146.88,194.27a3.14,3.14,0,1,1,0,6.28h-2.17v-6.28Zm0,6a2.9,2.9,0,0,0,0-5.8H145v5.8Z"/><path class="cls-1" d="M166.94,194.27H171v.24h-3.87v2.77h2.9v.24h-2.9v2.78H171v.24h-4.11Z"/><path class="cls-1" d="M191.7,198.2a1.6,1.6,0,0,1,.23.84,1.87,1.87,0,0,1,0,.42,1.64,1.64,0,0,1-.76,1.07,2.88,2.88,0,0,1-1,.33,4,4,0,0,1-2.63-.53l0,0,.15-.2,0,0a4,4,0,0,0,2,.51l.5,0a2.39,2.39,0,0,0,.88-.29,1.42,1.42,0,0,0,.64-.93,1.52,1.52,0,0,0,0-.37,1.37,1.37,0,0,0-.19-.71,1.57,1.57,0,0,0-.94-.67l-1.63-.39h0a1.93,1.93,0,0,1-1.15-.76,1.46,1.46,0,0,1-.26-.85,2.05,2.05,0,0,1,0-.39,1.65,1.65,0,0,1,.67-1,2.39,2.39,0,0,1,1.32-.37h.07a3.83,3.83,0,0,1,2.22.66l0,0-.18.17a.1.1,0,0,0,0,0,3.67,3.67,0,0,0-2-.58h-.08a2.15,2.15,0,0,0-1.18.32,1.4,1.4,0,0,0-.58.83,1.69,1.69,0,0,0,0,.35,1.19,1.19,0,0,0,.23.72,1.79,1.79,0,0,0,1,.66h0l1.65.39A1.71,1.71,0,0,1,191.7,198.2Z"/><path class="cls-1" d="M209.22,194.27v6.28H209v-6.28Z"/><path class="cls-1" d="M231.85,199.86a3.38,3.38,0,1,1,.06-4.84l0,0-.17.16,0,0a3.14,3.14,0,1,0-.13,4.57v-2.35H229.2v-.24h2.66Z"/><path class="cls-1" d="M249.13,194.27l4.32,6v-6h.24v6.28h-.31l-4.29-5.91v5.91h-.24v-6.28Z"/><path class="cls-1" d="M286.78,194.27v6.28h-.24v-6.28Z"/><path class="cls-1" d="M304.46,194.27l4.32,6v-6H309v6.28h-.31l-4.29-5.91v5.91h-.24v-6.28Z"/><path class="cls-1" d="M331.48,199.69l.17.17a3.38,3.38,0,1,1,.06-4.84l0,0-.17.16,0,0a3.14,3.14,0,1,0,0,4.49Z"/><path class="cls-1" d="M333.16,199.83v.72h-.24v-.72Z"/></svg>