<svg id="Layer_1" data-name="Layer 1" xmlns="http://www.w3.org/2000/svg" viewBox="0 0 82.18 59.76"><defs><style>.cls-1{fill:none;stroke:#303030;stroke-miterlimit:10;}.cls-2{fill:#ed1c24;}.cls-3{fill:#595a5a;}</style></defs><title>EDI-Condensed-GreyI</title><circle class="cls-1" cx="38.44" cy="26.08" r="18.24"/><path class="cls-2" d="M28.84,32V20.1H33.5v.85H29.75v4.58H33v.85H29.75v4.75h3.8V32Z"/><path class="cls-2" d="M48.46,22.61v6.85c0,1.66-.92,2.51-2.71,2.51H43V20.1h2.77C47.55,20.1,48.46,20.95,48.46,22.61Zm-2.78-1.66H43.9V31.13h1.78c1.34,0,1.87-.56,1.87-2V22.92C47.55,21.51,47,20.95,45.68,20.95Z"/><rect class="cls-3" x="37.77" y="15.31" width="0.96" height="21.54"/><rect class="cls-3" x="37.77" y="12.42" width="0.96" height="4.82" transform="translate(53.09 -23.42) rotate(90)"/><rect class="cls-3" x="37.77" y="34.92" width="0.96" height="4.82" transform="translate(75.58 -0.92) rotate(90)"/></svg>