<svg id="Layer_1" data-name="Layer 1" xmlns="http://www.w3.org/2000/svg" viewBox="0 0 82.18 59.76"><defs><style>.cls-1{fill:none;stroke:#231f20;stroke-miterlimit:10;}.cls-2{fill:#231f20;}</style></defs><title>EDI-Condensed-Black</title><circle class="cls-1" cx="40.26" cy="29.88" r="18.24"/><path class="cls-2" d="M30.66,35.77V23.9h4.67v.85H31.57v4.58h3.22v.85H31.57v4.75h3.8v.85Z"/><path class="cls-2" d="M50.28,26.41v6.85c0,1.66-.92,2.51-2.71,2.51H44.8V23.9h2.77C49.37,23.9,50.28,24.75,50.28,26.41ZM47.5,24.75H45.72V34.93H47.5c1.34,0,1.87-.56,1.87-2V26.71C49.37,25.3,48.84,24.75,47.5,24.75Z"/><rect class="cls-2" x="39.59" y="19.11" width="0.96" height="21.54"/><rect class="cls-2" x="39.59" y="16.22" width="0.96" height="4.82" transform="translate(58.7 -21.44) rotate(90)"/><rect class="cls-2" x="39.59" y="38.72" width="0.96" height="4.82" transform="translate(81.2 1.06) rotate(90)"/></svg>