<svg id="Layer_1" data-name="Layer 1" xmlns="http://www.w3.org/2000/svg" viewBox="0 0 82.18 59.76"><defs><style>.cls-1{fill:none;stroke:#ed1c24;stroke-miterlimit:10;}.cls-2{fill:#ed1c24;}</style></defs><title>EDI-Condensed-Red</title><circle class="cls-1" cx="41.09" cy="29.88" r="18.24"/><path class="cls-2" d="M31.49,35.77V23.9h4.67v.85H32.41v4.58h3.22v.85H32.41v4.75h3.8v.85Z"/><path class="cls-2" d="M51.12,26.41v6.85c0,1.66-.92,2.51-2.71,2.51H45.64V23.9H48.4C50.2,23.9,51.12,24.75,51.12,26.41Zm-2.78-1.66H46.55V34.93h1.78c1.34,0,1.87-.56,1.87-2V26.71C50.2,25.3,49.68,24.75,48.33,24.75Z"/><rect class="cls-2" x="40.43" y="19.11" width="0.96" height="21.54"/><rect class="cls-2" x="40.43" y="16.22" width="0.96" height="4.82" transform="translate(59.54 -22.28) rotate(90)"/><rect class="cls-2" x="40.43" y="38.72" width="0.96" height="4.82" transform="translate(82.04 0.22) rotate(90)"/></svg>