<svg id="Layer_1" data-name="Layer 1" xmlns="http://www.w3.org/2000/svg" viewBox="0 0 468 324"><defs><style>.cls-1{fill:#ed1c24;}.cls-2{fill:#030202;}.cls-3{fill:#333;}</style></defs><title>EDI-Red&amp;amp;Black-Logo</title><path class="cls-1" d="M51.87,182.65V128.17h21.4v3.89H56.08v21H70.86V157H56.08v21.79H73.51v3.89Z"/><path class="cls-1" d="M95.07,154.71l11.68,27.94h-4.59l-9.81-24.13-9.73,24.13H78.1L90,154.4,79,128.17h4.67l9,22.73,8.48-22.73h4.44Z"/><path class="cls-1" d="M137.1,171.75c0,7.78-4.2,11.52-12.45,11.52h-.16c-8.25,0-12.45-3.66-12.45-11.52V139.06c0-7.47,4.2-11.52,12.45-11.52h.16c8.25,0,12.45,4,12.45,11.52v9.34h-4.2v-7.94c0-6.38-2.26-9-8.33-9s-8.33,2.65-8.33,9v29.89c0,6.38,2.26,9,8.33,9s8.33-2.65,8.33-9v-9.26h4.2Z"/><path class="cls-1" d="M146.76,182.65V128.17h21.4v3.89H151v21h14.79V157H151v21.79h17.44v3.89Z"/><path class="cls-1" d="M197.12,182.65H176.65V128.17h4.2v50.59h16.27Z"/><path class="cls-1" d="M203.81,182.65V128.17h21.4v3.89H208v21H222.8V157H208v21.79h17.44v3.89Z"/><path class="cls-1" d="M256.35,182.65l-9-23.51h-9.5v23.51h-4.2V128.17h12.84c8.25,0,12.45,3.89,12.45,11.52v7.94c0,5.92-2.49,9.57-7.47,10.9l9.34,24.13Zm-1.56-36.35v-5.21c0-6.46-2.41-9-8.56-9H237.9v23.27h8.33C252.38,155.33,254.79,152.69,254.79,146.3Z"/><path class="cls-1" d="M287.41,168.64H272.78l-3,14h-4.2l12.14-54.48h4.83l12.3,54.48h-4.36Zm-.86-3.81-6.46-30-6.46,30Z"/><path class="cls-1" d="M319,132.06H308.74v50.59h-4.2V132.06H294.26v-3.89H319Z"/><path class="cls-1" d="M325.86,182.65V128.17h4.2v54.48Z"/><path class="cls-1" d="M352.87,127.54h.62c8.25,0,12.45,3.89,12.45,11.52v32.69c0,7.63-4.2,11.52-12.45,11.52h-.62c-8.25,0-12.45-3.89-12.45-11.52V139.06C340.42,131.36,344.62,127.54,352.87,127.54Zm.31,51.84c6.15,0,8.56-2.57,8.56-9V140.47c0-6.46-2.41-9-8.56-9s-8.56,2.57-8.56,9v29.89C344.62,176.81,347,179.38,353.18,179.38Z"/><path class="cls-1" d="M375.91,182.65V128.17h4.36l17.82,44.52V128.17h4v54.48H398L380,137.82v44.83Z"/><rect class="cls-2" x="15.6" y="104.16" width="421.63" height="3.24"/><rect class="cls-2" x="15.59" y="207.96" width="105.41" height="3.23"/><rect class="cls-2" x="332.14" y="207.96" width="105.08" height="3.23"/><rect class="cls-2" x="-36.29" y="156.05" width="107.02" height="3.24" transform="translate(174.89 140.46) rotate(90)"/><rect class="cls-2" x="382.09" y="156.05" width="107.02" height="3.24" transform="translate(593.28 -277.93) rotate(90)"/><path class="cls-3" d="M139.79,205.47a4.23,4.23,0,1,1,0,8.45h-2.93v-8.45Zm0,8.13a3.9,3.9,0,0,0,0-7.8h-2.6v7.8Z"/><path class="cls-3" d="M156.37,205.47h5.53v.33h-5.2v3.73h3.9v.32h-3.9v3.74h5.2v.33h-5.53Z"/><path class="cls-3" d="M179.27,210.75a2.16,2.16,0,0,1,.31,1.13,2.54,2.54,0,0,1-.06.56,2.21,2.21,0,0,1-1,1.44,3.85,3.85,0,0,1-1.3.44,5.45,5.45,0,0,1-3.54-.71l-.06,0,.2-.27.05.05a5.37,5.37,0,0,0,2.64.69,6.28,6.28,0,0,0,.68,0,3.25,3.25,0,0,0,1.18-.39,1.91,1.91,0,0,0,.86-1.25,2,2,0,0,0,.06-.49,1.84,1.84,0,0,0-.26-.95,2.11,2.11,0,0,0-1.26-.9l-2.2-.52h0a2.6,2.6,0,0,1-1.55-1,2,2,0,0,1-.35-1.14,2.78,2.78,0,0,1,.05-.52,2.22,2.22,0,0,1,.9-1.31,3.22,3.22,0,0,1,1.77-.49h.09a5.16,5.16,0,0,1,3,.88l.05.05-.25.23a.13.13,0,0,0,0-.06,4.93,4.93,0,0,0-2.76-.78h-.1a2.89,2.89,0,0,0-1.59.44,1.89,1.89,0,0,0-.77,1.11,2.28,2.28,0,0,0-.05.47,1.6,1.6,0,0,0,.31,1,2.41,2.41,0,0,0,1.34.88h0l2.22.52A2.31,2.31,0,0,1,179.27,210.75Z"/><path class="cls-3" d="M192.44,205.47v8.45h-.33v-8.45Z"/><path class="cls-3" d="M212.49,213a4.55,4.55,0,1,1,.08-6.51l0,.05-.23.22,0,0a4.22,4.22,0,1,0-.17,6.15v-3.16h-3.25v-.33h3.57Z"/><path class="cls-3" d="M225.32,205.47l5.81,8v-8h.33v8.45H231L225.27,206v7.94h-.33v-8.45Z"/><path class="cls-3" d="M265.57,205.47v8.45h-.33v-8.45Z"/><path class="cls-3" d="M278.94,205.47l5.81,8v-8h.33v8.45h-.42L278.89,206v7.94h-.33v-8.45Z"/><path class="cls-3" d="M304.89,212.75l.22.23a4.55,4.55,0,1,1,.08-6.51l0,.05-.23.22,0,0a4.22,4.22,0,1,0-.07,6Z"/><path class="cls-3" d="M307.15,212.94v1h-.33v-1Z"/></svg>