<svg id="Layer_1" data-name="Layer 1" xmlns="http://www.w3.org/2000/svg" viewBox="0 0 82.18 59.76"><defs><style>.cls-1{fill:none;stroke:#fff;stroke-miterlimit:10;}.cls-2{fill:#fff;}</style></defs><title>EDI-Condensed-White</title><circle class="cls-1" cx="42.61" cy="28.98" r="18.24"/><path class="cls-2" d="M33,34.87V23h4.67v.85H33.93v4.58h3.22v.85H33.93V34h3.8v.85Z"/><path class="cls-2" d="M52.64,25.51v6.86c0,1.66-.92,2.51-2.71,2.51H47.16V23h2.77C51.72,23,52.64,23.84,52.64,25.51Zm-2.78-1.66H48.07V34h1.78c1.34,0,1.87-.56,1.87-2V25.81C51.72,24.4,51.2,23.84,49.85,23.84Z"/><rect class="cls-2" x="41.95" y="18.21" width="0.96" height="21.54"/><rect class="cls-2" x="41.95" y="15.32" width="0.96" height="4.82" transform="translate(60.15 -24.7) rotate(90)"/><rect class="cls-2" x="41.95" y="37.82" width="0.96" height="4.82" transform="translate(82.65 -2.2) rotate(90)"/></svg>